# xmcd CD database file
#
# Track frame offsets:
#	150
#	20072
#	41670
#	56980
#	72122
#	81965
#	97875
#	116475
#	134230
#	147662
#	163390
#	178825
#	196777
#	217162
#	236340
#	252467
#	267025
#	290375
#	303187
#	316757
#	329617
#
# Disc length: 4442 seconds
#
# Revision: 2
# Processed by: cddbd v1.5.2PL0 Copyright (c) Steve Scherf et al.
# Submitted via: CDex 1.70beta2
#
DISCID=48115815
DTITLE=ジャネット・ジャクソン - ハッピー～ヒッツ・フロム・TV&レディオ
DYEAR=2003
DGENRE=Pop
TTITLE0=ジャネット・ジャクソン/ダズント・リアリー・マター
TTITLE1=ロビー・ウィリアムス/サムシング・ビューティフル
TTITLE2=ブルー/イフ・ユー・カムバック
TTITLE3=ベン・フォールズ・ファイヴ/ジャクソン・カナリー
TTITLE4=ホリーズ/ステイ
TTITLE5=ダンディ・ウォーホルズ/ボヘミアン・ライク・ユー
TTITLE6=デヴィッド・ボウイ/レッツ・ダンス(シングル・ヴァージョン)
TTITLE7=カイリー・ミノーグ/ラヴ・アット・ファースト・サイト
TTITLE8=エイス・オブ・ベイス/ビューティフル・モーニング
TTITLE9=オリビア・ニュートン・ジョン/そよ風の誘惑
TTITLE10=アトミック・キトゥン/タイド・イズ・ハイ(ゲット・ザ・フィーリング)
TTITLE11=エマ・バントン/ソー・ロング
TTITLE12=ユーリズミックス/ゼア・マスト・ビー・アン・エンジェル
TTITLE13=ベリンダ・カーライル/この胸の想い
TTITLE14=レッド・ハーツ/ジャンピン・ジャック・フラッシュ
TTITLE15=レニー・クラヴィッツ/バトル・フィールド・オブ・ラヴ
TTITLE16=イギー・ポップ/ラスト・フォー・ライフ
TTITLE17=クラシックス・フォー/スプーキー
TTITLE18=ビーチ・ボーイズ/ゲッチャ・バック
TTITLE19=トミー・ジェイムス&ションデルズ/ハンキー・パンキー
TTITLE20=モンティー・パイソン/シット・オン・マイ・フェイス
EXTD=YEAR: 2003
EXTT0=
EXTT1=
EXTT2=
EXTT3=
EXTT4=
EXTT5=
EXTT6=
EXTT7=
EXTT8=
EXTT9=
EXTT10=
EXTT11=
EXTT12=
EXTT13=
EXTT14=
EXTT15=
EXTT16=
EXTT17=
EXTT18=
EXTT19=
EXTT20=
PLAYORDER=
